<svg id="Layer_1" data-name="Layer 1" xmlns="http://www.w3.org/2000/svg" viewBox="0 0 957.88 219.97"><defs><style>.cls-1{fill:#fff;}</style></defs><title>pure_volume_logo</title><g id="_Group_" data-name="&lt;Group&gt;"><g id="_Group_2" data-name="&lt;Group&gt;"><path id="_Compound_Path_" data-name="&lt;Compound Path&gt;" d="M21.06,242.31v-220H978.94v220ZM401.22,222H958.56V42.58H401.22ZM223.44,85.82v98.26h19.81v-42.4c9.07,13.95,17.3,26.64,25.61,39.27.85,1.3,2.19,3.16,3.36,3.21,7.51.29,15,.15,23.32.15l-22.27-34.6c3.57-3,7.24-5.17,9.81-8.28,16.21-19.65,6.43-49.2-18.59-53.75C251.25,85.27,237.38,86.34,223.44,85.82Zm-92.29.72c0,21.68,0,43,0,64.24a8.31,8.31,0,0,0,.18,1.49c3.71,21.12,22.37,34.88,44.74,33,19.28-1.63,34.92-19.27,35-39.54.05-18.15,0-36.3,0-54.44v-4.7H191v5.61c0,17.31,0,34.63,0,51.94,0,11.84-9,21.2-20,21.17S151.12,156,151.08,144c-.06-17,0-34,0-50.94V86.54Zm173,98.58H363v-19.8H324.29V145.07h29.13V125.26H324.31V105.14H363V85.61H304.2ZM53.37,86.66v97.25H73.32V155.08c5.18,0,9.84.13,14.49,0,17.72-.59,32.86-14.05,34.18-30.28,1.54-19-10-35.57-28.42-37.8C80.48,85.38,67,86.66,53.37,86.66Z" transform="translate(-21.06 -22.34)"/><path id="_Compound_Path_2" data-name="&lt;Compound Path&gt;" class="cls-1" d="M401.22,222V42.58H958.56V222ZM764.34,83.08V183h19.77V143.21l28.25,38.5,27.72-37.81,1,.39V183h19.45V82.81c-16.5,22.52-32.2,44-48.18,65.79ZM551.76,184.3c27.93,0,50.14-21.78,50.21-49.3C602,106.93,580,84.41,552.48,84.35c-28,0-50.41,22-50.46,49.68C502,162.19,523.82,184.27,551.76,184.3ZM673,85.47v4.87c0,18,0,36,0,54,.06,22.56,17.4,39.95,39.76,40,22.73,0,40.11-17.26,40.17-40.08,0-18,0-36,0-54v-4.6H733v5.7c0,17.33,0,34.65,0,52,0,12-8.76,21-20.07,21s-19.92-9-19.95-21.11c0-17.49,0-35,0-52.47V85.47Zm248.93,58.62V124.3H893.1V104.17h38.6V84.75H873.24V184h58.57V164.52H893.23V144.09ZM461.82,186c15.12-34.16,29.73-67.14,44.56-100.65-6.56,0-12.22.13-17.87,0-2.57-.08-3.8.82-4.76,3.2C481,95.28,478,101.93,475,108.63L461.82,138.9c-.93-2-1.49-3.14-2-4.3-6.63-15.24-13.2-30.49-19.93-45.68-.63-1.41-2.19-3.32-3.41-3.39-6.06-.35-12.16-.16-19.05-.16ZM611.37,85.49v97.45h58.36V163.32H630.64V85.49Z" transform="translate(-21.06 -22.34)"/><path id="_Compound_Path_3" data-name="&lt;Compound Path&gt;" class="cls-1" d="M223.44,85.82c13.94.52,27.81-.55,41.05,1.86,25,4.55,34.8,34.1,18.59,53.75-2.57,3.11-6.24,5.31-9.81,8.28l22.27,34.6c-8.29,0-15.81.14-23.32-.15-1.17,0-2.51-1.91-3.36-3.21-8.31-12.63-16.54-25.32-25.61-39.27v42.4H223.44Zm19.92,19.89v26.82c5.27,0,10.26.29,15.2-.07,6.07-.44,10.63-5.54,11.38-12,.65-5.64-2.81-11.73-8.59-13S249.6,106.25,243.36,105.71Z" transform="translate(-21.06 -22.34)"/><path id="_Path_" data-name="&lt;Path&gt;" class="cls-1" d="M131.15,86.54h19.91V93.1c0,17,0,34,0,50.94,0,12,8.78,21.22,19.9,21.25s20-9.33,20-21.17c.07-17.31,0-34.63,0-51.94V86.57h20v4.7c0,18.14,0,36.29,0,54.44,0,20.27-15.69,37.91-35,39.54-22.37,1.9-41-11.86-44.74-33a8.31,8.31,0,0,1-.18-1.49C131.14,129.5,131.15,108.22,131.15,86.54Z" transform="translate(-21.06 -22.34)"/><path id="_Path_2" data-name="&lt;Path&gt;" class="cls-1" d="M304.2,185.12V85.61H363v19.53H324.31v20.12h29.11v19.81H324.29v20.25H363v19.8Z" transform="translate(-21.06 -22.34)"/><path id="_Compound_Path_4" data-name="&lt;Compound Path&gt;" class="cls-1" d="M53.37,86.66c13.66,0,27.11-1.28,40.2.31,18.39,2.23,30,18.83,28.42,37.8-1.32,16.23-16.46,29.69-34.18,30.28-4.65.16-9.31,0-14.49,0v28.83H53.37ZM73.26,135.3c5.2,0,9.85.16,14.48,0a14.76,14.76,0,0,0,14.33-13.83c.34-7.14-4.92-14.29-11.79-15-5.53-.56-11.17-.11-17-.11Z" transform="translate(-21.06 -22.34)"/><path id="_Path_3" data-name="&lt;Path&gt;" d="M764.34,83.08l48,65.52c16-21.82,31.68-43.27,48.18-65.79V183H841.09V144.29l-1-.39-27.72,37.81-28.25-38.5V183H764.34Z" transform="translate(-21.06 -22.34)"/><path id="_Compound_Path_5" data-name="&lt;Compound Path&gt;" d="M551.76,184.3C523.82,184.27,502,162.19,502,134c.05-27.67,22.47-49.73,50.46-49.68C580,84.41,602,106.93,602,135,601.9,162.52,579.69,184.33,551.76,184.3Zm.45-80A30,30,0,1,0,582,134.7,30.08,30.08,0,0,0,552.21,104.31Z" transform="translate(-21.06 -22.34)"/><path id="_Path_4" data-name="&lt;Path&gt;" d="M673,85.47h20v5.29c0,17.49,0,35,0,52.47,0,12.08,8.58,21.08,19.95,21.11s20-9.07,20.07-21c0-17.32,0-34.64,0-52v-5.7h20v4.6c0,18,0,36,0,54-.06,22.82-17.44,40.11-40.17,40.08-22.36,0-39.7-17.43-39.76-40,0-18,0-36,0-54Z" transform="translate(-21.06 -22.34)"/><path id="_Path_5" data-name="&lt;Path&gt;" d="M921.93,144.09h-28.7v20.43h38.58V184H873.24V84.75H931.7v19.42H893.1V124.3h28.83Z" transform="translate(-21.06 -22.34)"/><path id="_Path_6" data-name="&lt;Path&gt;" d="M461.82,186,417.44,85.37c6.89,0,13-.19,19.05.16,1.22.07,2.78,2,3.41,3.39,6.73,15.19,13.3,30.44,19.93,45.68.5,1.16,1.06,2.3,2,4.3L475,108.63c2.93-6.7,6-13.35,8.71-20.13,1-2.38,2.19-3.28,4.76-3.2,5.65.18,11.31,0,17.87,0C491.55,118.86,476.94,151.84,461.82,186Z" transform="translate(-21.06 -22.34)"/><path id="_Path_7" data-name="&lt;Path&gt;" d="M611.37,85.49h19.27v77.83h39.09v19.62H611.37Z" transform="translate(-21.06 -22.34)"/><path id="_Path_8" data-name="&lt;Path&gt;" d="M243.36,105.71c6.24.54,12.26.48,18,1.73s9.24,7.35,8.59,13c-.75,6.49-5.31,11.59-11.38,12-4.94.36-9.93.07-15.2.07Z" transform="translate(-21.06 -22.34)"/><path id="_Path_9" data-name="&lt;Path&gt;" d="M73.26,135.3v-29c5.85,0,11.49-.45,17,.11,6.87.69,12.13,7.84,11.79,15a14.76,14.76,0,0,1-14.33,13.83C83.11,135.46,78.46,135.3,73.26,135.3Z" transform="translate(-21.06 -22.34)"/><path id="_Path_10" data-name="&lt;Path&gt;" class="cls-1" d="M552.21,104.31A30,30,0,1,1,522,134.24,30.17,30.17,0,0,1,552.21,104.31Z" transform="translate(-21.06 -22.34)"/></g></g></svg>